<svg xmlns="http://www.w3.org/2000/svg" xmlns:xlink="http://www.w3.org/1999/xlink" width="250" zoomAndPan="magnify" viewBox="0 0 187.5 30.000001" height="40" preserveAspectRatio="xMidYMid meet" version="1.0"><defs><g/></defs><g fill="#ffffff" fill-opacity="1"><g transform="translate(3.689513, 22.016099)"><g><path d="M 28.46875 0 L 21.265625 0 L 19.671875 -2.78125 L 8.96875 -2.78125 L 7.375 0 L 0.171875 0 L 11.015625 -16.9375 L 17.625 -16.9375 Z M 17.265625 -6.96875 L 14.328125 -12.109375 L 11.375 -6.96875 Z M 17.265625 -6.96875 "/></g></g></g><g fill="#ffffff" fill-opacity="1"><g transform="translate(26.426151, 22.016099)"><g><path d="M 16.28125 0 L 9.671875 0 L 0.171875 -16.9375 L 7.375 -16.9375 L 12.984375 -4.828125 L 18.5625 -16.9375 L 25.765625 -16.9375 Z M 16.28125 0 "/></g></g></g><g fill="#ffffff" fill-opacity="1"><g transform="translate(52.375825, 22.016099)"><g><path d="M 9 0 L 1.890625 0 L 1.890625 -16.953125 L 9 -16.953125 Z M 9 0 "/></g></g></g><g fill="#ffffff" fill-opacity="1"><g transform="translate(63.265945, 22.016099)"><g/></g></g><g fill="#ffffff" fill-opacity="1"><g transform="translate(69.266141, 22.016099)"><g><path d="M 11.203125 0.359375 C 8.910156 0.359375 7.0625 0.113281 5.65625 -0.375 C 4.257812 -0.863281 3.191406 -1.539062 2.453125 -2.40625 C 1.722656 -3.269531 1.234375 -4.265625 0.984375 -5.390625 L 8.53125 -5.390625 C 9.082031 -4.585938 9.972656 -4.1875 11.203125 -4.1875 C 12.421875 -4.1875 13.304688 -4.585938 13.859375 -5.390625 C 13.910156 -5.460938 13.9375 -5.53125 13.9375 -5.59375 C 13.9375 -5.8125 13.65625 -5.972656 13.09375 -6.078125 C 12.53125 -6.179688 11.6875 -6.257812 10.5625 -6.3125 C 9.15625 -6.375 7.675781 -6.523438 6.125 -6.765625 C 2.664062 -7.304688 0.9375 -8.695312 0.9375 -10.9375 C 0.9375 -11.125 0.953125 -11.320312 0.984375 -11.53125 C 1.234375 -12.664062 1.722656 -13.660156 2.453125 -14.515625 C 3.191406 -15.378906 4.257812 -16.054688 5.65625 -16.546875 C 7.0625 -17.046875 8.910156 -17.296875 11.203125 -17.296875 C 13.492188 -17.296875 15.335938 -17.046875 16.734375 -16.546875 C 18.140625 -16.054688 19.207031 -15.378906 19.9375 -14.515625 C 20.664062 -13.660156 21.15625 -12.664062 21.40625 -11.53125 L 13.859375 -11.53125 C 13.304688 -12.34375 12.421875 -12.75 11.203125 -12.75 C 9.972656 -12.75 9.082031 -12.34375 8.53125 -11.53125 C 8.488281 -11.46875 8.46875 -11.410156 8.46875 -11.359375 C 8.46875 -11.171875 8.738281 -11.03125 9.28125 -10.9375 C 9.820312 -10.851562 10.613281 -10.78125 11.65625 -10.71875 C 12.707031 -10.65625 13.828125 -10.550781 15.015625 -10.40625 C 16.210938 -10.257812 17.328125 -10.007812 18.359375 -9.65625 C 19.390625 -9.3125 20.195312 -8.796875 20.78125 -8.109375 C 21.238281 -7.585938 21.46875 -6.921875 21.46875 -6.109375 C 21.46875 -5.878906 21.445312 -5.640625 21.40625 -5.390625 C 21.15625 -4.265625 20.664062 -3.269531 19.9375 -2.40625 C 19.207031 -1.539062 18.140625 -0.863281 16.734375 -0.375 C 15.335938 0.113281 13.492188 0.359375 11.203125 0.359375 Z M 11.203125 0.359375 "/></g></g></g><g fill="#ffffff" fill-opacity="1"><g transform="translate(91.684198, 22.016099)"><g><path d="M 9 0 L 1.890625 0 L 1.890625 -16.953125 L 9 -16.953125 Z M 9 0 "/></g></g></g><g fill="#ffffff" fill-opacity="1"><g transform="translate(102.574318, 22.016099)"><g><path d="M 27.03125 0 L 18.578125 0 L 9 -11.46875 L 9 0 L 1.890625 0 L 1.890625 -16.953125 L 10.34375 -16.953125 L 19.921875 -5.53125 L 19.921875 -16.953125 L 27.03125 -16.953125 Z M 27.03125 0 "/></g></g></g><g fill="#ffffff" fill-opacity="1"><g transform="translate(131.500467, 22.016099)"><g><path d="M 12.8125 0.359375 C 8.625 0.359375 5.539062 -0.5 3.5625 -2.21875 C 1.8125 -3.75 0.9375 -5.828125 0.9375 -8.453125 C 0.9375 -11.085938 1.8125 -13.171875 3.5625 -14.703125 C 5.539062 -16.429688 8.625 -17.296875 12.8125 -17.296875 C 15.195312 -17.296875 17.179688 -17.023438 18.765625 -16.484375 C 20.347656 -15.953125 21.585938 -15.222656 22.484375 -14.296875 C 23.390625 -13.367188 24.007812 -12.304688 24.34375 -11.109375 L 16.734375 -11.109375 C 15.941406 -12.203125 14.632812 -12.75 12.8125 -12.75 C 11.09375 -12.75 9.828125 -12.253906 9.015625 -11.265625 C 8.367188 -10.472656 8.046875 -9.535156 8.046875 -8.453125 C 8.046875 -7.378906 8.367188 -6.445312 9.015625 -5.65625 C 9.828125 -4.675781 11.09375 -4.1875 12.8125 -4.1875 C 14.195312 -4.1875 15.238281 -4.304688 15.9375 -4.546875 C 16.632812 -4.785156 17.144531 -5.097656 17.46875 -5.484375 L 14.6875 -5.484375 L 14.6875 -8.453125 L 24.34375 -8.453125 L 24.34375 0.015625 L 21.390625 0.015625 L 20.78125 -1.625 C 18.90625 -0.300781 16.25 0.359375 12.8125 0.359375 Z M 12.8125 0.359375 "/></g></g></g><g fill="#ffffff" fill-opacity="1"><g transform="translate(157.261158, 22.016099)"><g><path d="M 25.03125 0 L 17.921875 0 L 17.921875 -6.84375 L 9 -6.84375 L 9 0 L 1.890625 0 L 1.890625 -16.953125 L 9 -16.953125 L 9 -10.09375 L 17.921875 -10.09375 L 17.921875 -16.953125 L 25.03125 -16.953125 Z M 25.03125 0 "/></g></g></g></svg>